<mxfile host="app.diagrams.net" modified="2024-01-02T13:23:52.986Z" agent="Mozilla/5.0 (Windows NT 10.0; Win64; x64) AppleWebKit/537.36 (KHTML, like Gecko) Chrome/118.0.0.0 YaBrowser/23.11.0.0 Safari/537.36" etag="gHCC7zPgDS9PL6rQwV8e" version="22.1.16" type="github">
  <diagram name="Page-1" id="e7e014a7-5840-1c2e-5031-d8a46d1fe8dd">
    <mxGraphModel dx="3674" dy="2244" grid="1" gridSize="10" guides="1" tooltips="1" connect="1" arrows="1" fold="1" page="1" pageScale="1" pageWidth="1169" pageHeight="826" background="none" math="0" shadow="0">
      <root>
        <mxCell id="0" />
        <mxCell id="1" parent="0" />
        <mxCell id="WyI-pxeLtpfjBwSXR6c7-53" value="" style="endArrow=classic;endFill=1;endSize=12;html=1;rounded=0;entryX=-0.003;entryY=0.388;entryDx=0;entryDy=0;entryPerimeter=0;" edge="1" parent="1">
          <mxGeometry width="160" relative="1" as="geometry">
            <mxPoint x="-850" y="-628.8" as="sourcePoint" />
            <mxPoint x="-660.69" y="-630.0000000000002" as="targetPoint" />
          </mxGeometry>
        </mxCell>
        <mxCell id="WyI-pxeLtpfjBwSXR6c7-56" value="&lt;font style=&quot;font-size: 15px;&quot;&gt;Логин&lt;/font&gt;" style="edgeLabel;html=1;align=center;verticalAlign=middle;resizable=0;points=[];" vertex="1" connectable="0" parent="WyI-pxeLtpfjBwSXR6c7-53">
          <mxGeometry x="0.0631" y="5" relative="1" as="geometry">
            <mxPoint x="-1" y="-6" as="offset" />
          </mxGeometry>
        </mxCell>
        <mxCell id="WyI-pxeLtpfjBwSXR6c7-54" value="" style="endArrow=classic;endFill=1;endSize=12;html=1;rounded=0;entryX=-0.003;entryY=0.388;entryDx=0;entryDy=0;entryPerimeter=0;" edge="1" parent="1">
          <mxGeometry width="160" relative="1" as="geometry">
            <mxPoint x="-849.69" y="-589" as="sourcePoint" />
            <mxPoint x="-660.69" y="-590" as="targetPoint" />
          </mxGeometry>
        </mxCell>
        <mxCell id="WyI-pxeLtpfjBwSXR6c7-57" value="&lt;font style=&quot;font-size: 15px;&quot;&gt;Пароль&lt;/font&gt;" style="edgeLabel;html=1;align=center;verticalAlign=middle;resizable=0;points=[];" vertex="1" connectable="0" parent="WyI-pxeLtpfjBwSXR6c7-54">
          <mxGeometry x="-0.0305" y="4" relative="1" as="geometry">
            <mxPoint x="7" y="-7" as="offset" />
          </mxGeometry>
        </mxCell>
        <mxCell id="WyI-pxeLtpfjBwSXR6c7-119" style="edgeStyle=orthogonalEdgeStyle;rounded=0;orthogonalLoop=1;jettySize=auto;html=1;exitX=1;exitY=0.5;exitDx=0;exitDy=0;entryX=0;entryY=0.5;entryDx=0;entryDy=0;" edge="1" parent="1" source="WyI-pxeLtpfjBwSXR6c7-69" target="WyI-pxeLtpfjBwSXR6c7-105">
          <mxGeometry relative="1" as="geometry">
            <Array as="points">
              <mxPoint x="50" y="-615" />
              <mxPoint x="50" y="-345" />
            </Array>
          </mxGeometry>
        </mxCell>
        <mxCell id="WyI-pxeLtpfjBwSXR6c7-120" value="&lt;font style=&quot;font-size: 15px;&quot;&gt;Данные пользователя&lt;/font&gt;" style="edgeLabel;html=1;align=center;verticalAlign=middle;resizable=0;points=[];" vertex="1" connectable="0" parent="WyI-pxeLtpfjBwSXR6c7-119">
          <mxGeometry x="0.7075" relative="1" as="geometry">
            <mxPoint x="-1" y="-13" as="offset" />
          </mxGeometry>
        </mxCell>
        <mxCell id="WyI-pxeLtpfjBwSXR6c7-69" value="&lt;font style=&quot;font-size: 20px;&quot;&gt;Авторизация&lt;/font&gt;" style="html=1;whiteSpace=wrap;" vertex="1" parent="1">
          <mxGeometry x="-265.69000000000005" y="-660" width="230" height="90" as="geometry" />
        </mxCell>
        <mxCell id="WyI-pxeLtpfjBwSXR6c7-74" value="" style="endArrow=classic;endFill=1;endSize=12;html=1;rounded=0;entryX=0;entryY=0.5;entryDx=0;entryDy=0;exitX=1;exitY=0.5;exitDx=0;exitDy=0;" edge="1" parent="1">
          <mxGeometry width="160" relative="1" as="geometry">
            <mxPoint x="-430.69000000000005" y="-630" as="sourcePoint" />
            <mxPoint x="-265.69000000000005" y="-630" as="targetPoint" />
          </mxGeometry>
        </mxCell>
        <mxCell id="WyI-pxeLtpfjBwSXR6c7-118" value="&lt;font style=&quot;font-size: 15px;&quot;&gt;Данные пользователя&lt;/font&gt;" style="edgeLabel;html=1;align=center;verticalAlign=middle;resizable=0;points=[];" vertex="1" connectable="0" parent="WyI-pxeLtpfjBwSXR6c7-74">
          <mxGeometry x="-0.2518" y="-1" relative="1" as="geometry">
            <mxPoint x="21" y="-12" as="offset" />
          </mxGeometry>
        </mxCell>
        <mxCell id="WyI-pxeLtpfjBwSXR6c7-105" value="&lt;font style=&quot;font-size: 20px;&quot;&gt;Учёт рабочего времени&amp;nbsp;&lt;/font&gt;" style="html=1;whiteSpace=wrap;" vertex="1" parent="1">
          <mxGeometry x="300" y="-390" width="200" height="90" as="geometry" />
        </mxCell>
        <mxCell id="WyI-pxeLtpfjBwSXR6c7-107" value="" style="endArrow=classic;endFill=1;endSize=12;html=1;rounded=0;entryX=0;entryY=0.25;entryDx=0;entryDy=0;" edge="1" parent="1">
          <mxGeometry width="160" relative="1" as="geometry">
            <mxPoint x="120" y="-379.5" as="sourcePoint" />
            <mxPoint x="300" y="-380" as="targetPoint" />
          </mxGeometry>
        </mxCell>
        <mxCell id="WyI-pxeLtpfjBwSXR6c7-108" value="&lt;font style=&quot;font-size: 15px;&quot;&gt;Название задачи&lt;/font&gt;" style="edgeLabel;html=1;align=center;verticalAlign=middle;resizable=0;points=[];" vertex="1" connectable="0" parent="WyI-pxeLtpfjBwSXR6c7-107">
          <mxGeometry x="-0.4129" y="-3" relative="1" as="geometry">
            <mxPoint x="37" y="-16" as="offset" />
          </mxGeometry>
        </mxCell>
        <mxCell id="WyI-pxeLtpfjBwSXR6c7-109" value="" style="endArrow=classic;endFill=1;endSize=12;html=1;rounded=0;entryX=0;entryY=0.5;entryDx=0;entryDy=0;" edge="1" parent="1">
          <mxGeometry width="160" relative="1" as="geometry">
            <mxPoint x="120" y="-310" as="sourcePoint" />
            <mxPoint x="300" y="-309.99999999999994" as="targetPoint" />
          </mxGeometry>
        </mxCell>
        <mxCell id="WyI-pxeLtpfjBwSXR6c7-110" value="&lt;font style=&quot;font-size: 15px;&quot;&gt;Наименование категории&lt;/font&gt;" style="edgeLabel;html=1;align=center;verticalAlign=middle;resizable=0;points=[];" vertex="1" connectable="0" parent="WyI-pxeLtpfjBwSXR6c7-109">
          <mxGeometry x="-0.1393" y="-1" relative="1" as="geometry">
            <mxPoint x="9" y="-13" as="offset" />
          </mxGeometry>
        </mxCell>
        <mxCell id="WyI-pxeLtpfjBwSXR6c7-111" value="" style="endArrow=classicThin;endFill=1;endSize=12;html=1;rounded=0;exitX=1;exitY=0.5;exitDx=0;exitDy=0;entryX=0;entryY=0.5;entryDx=0;entryDy=0;" edge="1" parent="1" source="WyI-pxeLtpfjBwSXR6c7-105" target="WyI-pxeLtpfjBwSXR6c7-113">
          <mxGeometry width="160" relative="1" as="geometry">
            <mxPoint x="505" y="-345.32" as="sourcePoint" />
            <mxPoint x="665" y="-345.32" as="targetPoint" />
          </mxGeometry>
        </mxCell>
        <mxCell id="WyI-pxeLtpfjBwSXR6c7-112" value="&lt;font style=&quot;font-size: 15px;&quot;&gt;Данные по учёту&lt;/font&gt;" style="edgeLabel;html=1;align=center;verticalAlign=middle;resizable=0;points=[];" vertex="1" connectable="0" parent="WyI-pxeLtpfjBwSXR6c7-111">
          <mxGeometry x="-0.3397" relative="1" as="geometry">
            <mxPoint x="24" y="-15" as="offset" />
          </mxGeometry>
        </mxCell>
        <mxCell id="WyI-pxeLtpfjBwSXR6c7-113" value="&lt;font style=&quot;font-size: 20px;&quot;&gt;Экспорт отчёта в Excel&lt;/font&gt;" style="html=1;whiteSpace=wrap;" vertex="1" parent="1">
          <mxGeometry x="670" y="-390" width="200" height="90" as="geometry" />
        </mxCell>
        <mxCell id="WyI-pxeLtpfjBwSXR6c7-114" value="" style="endArrow=classic;endFill=1;endSize=12;html=1;rounded=0;exitX=1;exitY=0.5;exitDx=0;exitDy=0;" edge="1" parent="1" source="WyI-pxeLtpfjBwSXR6c7-113">
          <mxGeometry width="160" relative="1" as="geometry">
            <mxPoint x="930" y="-350" as="sourcePoint" />
            <mxPoint x="1070" y="-345" as="targetPoint" />
          </mxGeometry>
        </mxCell>
        <mxCell id="WyI-pxeLtpfjBwSXR6c7-115" value="&lt;font style=&quot;font-size: 15px;&quot;&gt;Файл Excel&lt;/font&gt;" style="edgeLabel;html=1;align=center;verticalAlign=middle;resizable=0;points=[];" vertex="1" connectable="0" parent="WyI-pxeLtpfjBwSXR6c7-114">
          <mxGeometry x="-0.0923" relative="1" as="geometry">
            <mxPoint x="-1" y="-15" as="offset" />
          </mxGeometry>
        </mxCell>
        <mxCell id="WyI-pxeLtpfjBwSXR6c7-63" value="&lt;font style=&quot;font-size: 20px;&quot;&gt;Регистрация&amp;nbsp;&lt;/font&gt;" style="html=1;whiteSpace=wrap;" vertex="1" parent="1">
          <mxGeometry x="-660.69" y="-660" width="230" height="90" as="geometry" />
        </mxCell>
        <mxCell id="WyI-pxeLtpfjBwSXR6c7-127" style="edgeStyle=orthogonalEdgeStyle;rounded=0;orthogonalLoop=1;jettySize=auto;html=1;entryX=0.5;entryY=0;entryDx=0;entryDy=0;exitX=0.25;exitY=1;exitDx=0;exitDy=0;" edge="1" parent="1" source="WyI-pxeLtpfjBwSXR6c7-123" target="WyI-pxeLtpfjBwSXR6c7-63">
          <mxGeometry relative="1" as="geometry">
            <mxPoint x="-100" y="-730" as="sourcePoint" />
          </mxGeometry>
        </mxCell>
        <mxCell id="WyI-pxeLtpfjBwSXR6c7-128" style="edgeStyle=orthogonalEdgeStyle;rounded=0;orthogonalLoop=1;jettySize=auto;html=1;exitX=0.25;exitY=1;exitDx=0;exitDy=0;entryX=0.5;entryY=0;entryDx=0;entryDy=0;" edge="1" parent="1" source="WyI-pxeLtpfjBwSXR6c7-123" target="WyI-pxeLtpfjBwSXR6c7-69">
          <mxGeometry relative="1" as="geometry" />
        </mxCell>
        <mxCell id="WyI-pxeLtpfjBwSXR6c7-129" style="edgeStyle=orthogonalEdgeStyle;rounded=0;orthogonalLoop=1;jettySize=auto;html=1;exitX=0.75;exitY=1;exitDx=0;exitDy=0;entryX=0.5;entryY=0;entryDx=0;entryDy=0;" edge="1" parent="1" source="WyI-pxeLtpfjBwSXR6c7-123" target="WyI-pxeLtpfjBwSXR6c7-105">
          <mxGeometry relative="1" as="geometry">
            <Array as="points">
              <mxPoint x="24" y="-640" />
              <mxPoint x="400" y="-640" />
            </Array>
          </mxGeometry>
        </mxCell>
        <mxCell id="WyI-pxeLtpfjBwSXR6c7-130" style="edgeStyle=orthogonalEdgeStyle;rounded=0;orthogonalLoop=1;jettySize=auto;html=1;exitX=0.75;exitY=1;exitDx=0;exitDy=0;entryX=0.5;entryY=0;entryDx=0;entryDy=0;" edge="1" parent="1" source="WyI-pxeLtpfjBwSXR6c7-123" target="WyI-pxeLtpfjBwSXR6c7-113">
          <mxGeometry relative="1" as="geometry">
            <Array as="points">
              <mxPoint x="24" y="-640" />
              <mxPoint x="770" y="-640" />
            </Array>
          </mxGeometry>
        </mxCell>
        <mxCell id="WyI-pxeLtpfjBwSXR6c7-123" value="&lt;font style=&quot;font-size: 20px;&quot;&gt;Сервер БД&lt;/font&gt;" style="text;html=1;strokeColor=none;fillColor=none;align=center;verticalAlign=middle;whiteSpace=wrap;rounded=0;" vertex="1" parent="1">
          <mxGeometry x="-35.69" y="-780" width="80" height="20" as="geometry" />
        </mxCell>
        <mxCell id="WyI-pxeLtpfjBwSXR6c7-133" style="edgeStyle=orthogonalEdgeStyle;rounded=0;orthogonalLoop=1;jettySize=auto;html=1;exitX=0.75;exitY=0;exitDx=0;exitDy=0;entryX=0.5;entryY=1;entryDx=0;entryDy=0;" edge="1" parent="1" source="WyI-pxeLtpfjBwSXR6c7-125" target="WyI-pxeLtpfjBwSXR6c7-105">
          <mxGeometry relative="1" as="geometry">
            <Array as="points">
              <mxPoint x="-15" y="-250" />
              <mxPoint x="400" y="-250" />
            </Array>
          </mxGeometry>
        </mxCell>
        <mxCell id="WyI-pxeLtpfjBwSXR6c7-134" style="edgeStyle=orthogonalEdgeStyle;rounded=0;orthogonalLoop=1;jettySize=auto;html=1;exitX=0.75;exitY=0;exitDx=0;exitDy=0;entryX=0.5;entryY=1;entryDx=0;entryDy=0;" edge="1" parent="1" source="WyI-pxeLtpfjBwSXR6c7-125" target="WyI-pxeLtpfjBwSXR6c7-113">
          <mxGeometry relative="1" as="geometry">
            <Array as="points">
              <mxPoint x="-15" y="-250" />
              <mxPoint x="770" y="-250" />
            </Array>
          </mxGeometry>
        </mxCell>
        <mxCell id="WyI-pxeLtpfjBwSXR6c7-125" value="&lt;font style=&quot;font-size: 20px;&quot;&gt;Пользователь&lt;/font&gt;" style="text;html=1;strokeColor=none;fillColor=none;align=center;verticalAlign=middle;whiteSpace=wrap;rounded=0;" vertex="1" parent="1">
          <mxGeometry x="-60" y="-220" width="60" height="30" as="geometry" />
        </mxCell>
        <mxCell id="WyI-pxeLtpfjBwSXR6c7-131" style="edgeStyle=orthogonalEdgeStyle;rounded=0;orthogonalLoop=1;jettySize=auto;html=1;exitX=0.25;exitY=0;exitDx=0;exitDy=0;entryX=0.438;entryY=1;entryDx=0;entryDy=0;entryPerimeter=0;" edge="1" parent="1" source="WyI-pxeLtpfjBwSXR6c7-125" target="WyI-pxeLtpfjBwSXR6c7-63">
          <mxGeometry relative="1" as="geometry">
            <Array as="points">
              <mxPoint x="-45" y="-540" />
              <mxPoint x="-560" y="-540" />
            </Array>
          </mxGeometry>
        </mxCell>
      </root>
    </mxGraphModel>
  </diagram>
</mxfile>
